<svg width="1381" height="358" viewBox="0 0 1381 358" fill="none" xmlns="http://www.w3.org/2000/svg">
<path fill-rule="evenodd" clip-rule="evenodd" d="M-80.067 177.189C-80.3368 177.067 -80.6066 176.944 -80.8764 176.823C-81.9451 179.416 -85.4875 180.793 -85.0674 184.117C-84.6929 184.305 -84.3184 184.493 -83.944 184.68L-80.067 177.189ZM-97.7415 203.435C-98.0977 203.285 -98.4533 203.135 -98.8095 202.985C-100.444 205.978 -102.079 208.971 -103.714 211.965C-103.461 212.104 -103.208 212.243 -102.956 212.383C-101.682 209.137 -97.6664 207.441 -97.7415 203.435ZM-53.3417 231.467C-52.9939 227.682 -52.6981 224.469 -52.311 220.256C-56.8462 226.844 -56.8462 226.844 -53.3417 231.467ZM-213.391 224.458C-213.679 228.157 -213.914 231.18 -214.149 234.204C-213.841 234.283 -213.532 234.361 -213.224 234.44C-212.097 231.882 -210.971 229.324 -209.747 226.546C-210.952 225.855 -211.909 225.307 -213.391 224.458ZM-192.173 263.44C-188.789 255.821 -188.45 254.929 -192.173 251.117V263.44ZM-120.036 262.745L-120.76 262.687C-121.442 271.999 -122.122 281.311 -122.803 290.623C-122.367 290.653 -121.93 290.684 -121.494 290.714C-121.008 281.39 -120.522 272.067 -120.036 262.745ZM-71.5466 161.675C-69.0011 158.988 -66.8252 156.774 -64.768 154.453C-64.3478 153.98 -64.3731 153.111 -64.1933 152.424C-64.9261 152.414 -65.6996 152.246 -66.3861 152.42C-70.8925 153.563 -71.6443 157.034 -71.5466 161.675ZM-121.251 294.533C-121.708 294.56 -122.165 294.586 -122.621 294.612C-122.009 304.259 -121.398 313.907 -120.787 323.554C-120.483 323.536 -120.18 323.519 -119.878 323.502C-120.335 313.845 -120.793 304.189 -121.251 294.533ZM-47.3492 184.691V199.44C-45.0391 194.55 -41.628 189.669 -47.3492 184.691ZM-70.4935 151.297C-68.6583 150.483 -67.2426 149.855 -65.6695 149.158C-67.2658 145.412 -68.7377 141.957 -70.4935 137.838V151.297ZM-99.529 195.652C-99.0962 195.896 -98.6634 196.14 -98.2306 196.384C-95.4301 192.284 -92.5501 188.232 -89.928 184.02C-89.5922 183.481 -90.5997 182.105 -91.3459 180.192C-94.4528 186.061 -96.9905 190.856 -99.529 195.652ZM-132.624 364.728C-132.466 354.272 -135.27 345.692 -139.347 344.28C-137.032 351.32 -134.828 358.024 -132.624 364.728ZM-95.9563 201.325C-95.5825 201.398 -95.2087 201.47 -94.8356 201.543C-92.1384 197.469 -89.3715 193.438 -86.8085 189.281C-86.3539 188.545 -86.7438 187.287 -86.7438 186.269L-87.8624 186.074C-90.6123 190.242 -93.4199 194.376 -96.0497 198.619C-96.4453 199.257 -96.0083 200.41 -95.9563 201.325ZM-101.589 399.735C-99.9245 402.883 -98.7343 405.523 -97.157 407.905C-96.6096 408.732 -94.9016 409.515 -94.0943 409.238C-93.3229 408.972 -92.602 407.296 -92.6203 406.253C-92.6575 404.1 -93.2021 401.957 -93.5498 399.735H-101.589ZM-58.7074 152.701C-59.2448 152.993 -59.783 153.286 -60.3212 153.579C-57.0759 159.921 -53.8306 166.264 -50.586 172.606C-51.243 164.969 -52.3517 157.562 -58.7074 152.701ZM-157.01 318.84C-156.785 318.777 -156.56 318.715 -156.335 318.653V302.816C-158.697 302.223 -160.872 301.677 -163.193 301.094C-161.095 307.114 -159.053 312.976 -157.01 318.84ZM294.015 188.941C294.052 197.829 296.109 206.399 298.037 214.988C297.679 206.15 298.865 197.069 294.015 188.941ZM-128.663 156.824V175.941C-121.666 171.339 -121.871 162.673 -128.663 156.824ZM-32.6018 172.152C-32.899 172.056 -33.1962 171.96 -33.4926 171.864C-35.377 176.549 -37.326 181.21 -39.1254 185.928C-40.8095 190.343 -40.3444 191.851 -36.5012 195.279C-35.1859 187.477 -33.8938 179.814 -32.6018 172.152ZM-43.4639 242.929C-47.6977 251.744 -41.2282 257.983 -40.2938 265.747C-35.0159 256.903 -40.8228 250.527 -43.4639 242.929ZM-47.4561 244.667C-47.05 244.649 -46.6439 244.632 -46.2378 244.615C-46.1977 240.807 -45.8879 236.979 -46.1752 233.195C-46.731 225.883 -47.624 218.597 -48.1643 213.358C-48.7214 218.804 -49.2786 226.377 -50.3479 233.877C-50.9501 238.101 -49.117 241.279 -47.4561 244.667ZM-223.454 240.951C-223.175 240.808 -222.897 240.664 -222.618 240.521V222.667C-229.38 224.214 -230.775 226.763 -228.408 231.51C-226.823 234.69 -225.11 237.807 -223.454 240.951ZM-87.2574 180.467C-75.8465 166.823 -74.6992 164.848 -74.924 158.306C-79.5766 163.906 -83.8526 169.794 -88.2466 175.592C-89.791 177.631 -89.5493 179.096 -87.2574 180.467ZM-144.387 198.677C-140.906 195.4 -138.208 192.471 -135.111 190.051C-131.94 187.574 -131.486 184.386 -131.429 180.356C-135.587 182.712 -139.449 184.841 -143.231 187.105C-143.807 187.45 -144.307 188.405 -144.336 189.098C-144.456 192.099 -144.387 195.106 -144.387 198.677ZM-147.467 189.451C-150.458 191.977 -152.898 193.894 -155.135 196.025C-155.722 196.584 -156.025 197.873 -155.862 198.711C-155.163 202.312 -154.243 205.87 -153.398 209.461C-145.553 204.833 -147.361 197.419 -147.467 189.451ZM-51.17 243.923C-53.993 260.752 -56.6952 276.857 -59.3967 292.961C-58.7742 292.115 -58.3913 291.196 -58.1517 290.241C-55.1291 278.23 -52.2794 266.173 -49.0334 254.222C-47.9914 250.386 -49.3018 247.534 -51.17 243.923ZM-158.439 199.522C-163.936 207.24 -165.288 214.874 -165.083 224.04C-161.701 220.105 -158.959 216.993 -156.332 213.786C-155.887 213.243 -155.664 212.241 -155.801 211.541C-156.532 207.822 -157.409 204.132 -158.439 199.522ZM-38.7536 286.622C-39.0676 286.646 -39.381 286.669 -39.6944 286.692C-40.0836 302.617 -40.4728 318.54 -40.8614 334.464C-37.2388 326.715 -35.7577 301.294 -38.7536 286.622ZM66.6359 326.837C67.6068 306.687 68.5273 287.585 69.4477 268.483C65.0656 281.41 63.2543 318.183 66.6359 326.837ZM-91.5777 396.495C-89.4228 395.629 -86.3918 395.336 -85.8887 394.053C-83.3538 387.584 -81.4785 380.857 -79.3715 374.22C-81.8678 376.293 -83.5948 378.708 -85.7834 380.585C-87.96 382.452 -90.6011 383.78 -93.2744 385.495C-92.7601 388.832 -92.2107 392.391 -91.5777 396.495ZM-94.0312 396.33C-94.5237 392.964 -94.8939 389.973 -95.4462 387.016C-95.5656 386.376 -96.3441 385.356 -96.8099 385.362C-102.237 385.425 -105.715 382.121 -109.15 378.454C-107.894 383.025 -106.48 387.447 -104.885 391.802C-103.118 396.629 -102.446 397.002 -97.2006 396.758C-96.2802 396.715 -95.3668 396.515 -94.0312 396.33ZM-133.162 193.184C-133.431 192.893 -133.7 192.603 -133.97 192.312C-137.149 195.818 -140.341 199.314 -143.484 202.852C-143.746 203.146 -143.805 203.746 -143.748 204.178C-142.91 210.604 -142.037 217.027 -141.172 223.45C-140.875 223.456 -140.577 223.463 -140.28 223.469C-137.908 213.374 -135.535 203.278 -133.162 193.184ZM4.43993 305.517C4.83479 305.345 5.23035 305.174 5.62521 305.003L-0.00750732 275.664C-0.358093 275.719 -0.709396 275.771 -1.0607 275.825C-2.24176 281.657 -3.48395 287.477 -4.5547 293.329C-4.76759 294.491 -4.77954 296.175 -4.10927 296.927C-1.42534 299.938 1.56351 302.677 4.43993 305.517ZM-44.5052 232.697C-43.9262 231.052 -43.6227 230.428 -43.4864 229.768C-41.7664 221.44 -40.3598 213.032 -38.2542 204.803C-37.085 200.235 -38.9982 197.334 -41.7187 194.04C-45.3497 206.616 -46.6235 219.02 -44.5052 232.697ZM-191.538 288.147C-188.266 283.241 -185.103 278.537 -182.003 273.791C-181.675 273.289 -181.434 272.432 -181.634 271.93C-183.219 267.956 -184.92 264.027 -186.765 259.66C-192.076 270.019 -192.823 274.651 -191.538 288.147ZM98.4205 222.544C99.4625 212.797 100.171 202.997 101.648 193.316C102.912 185.036 105.089 176.897 106.765 168.677C106.934 167.843 106.429 166.871 106.237 165.964C105.399 166.413 104.252 166.659 103.793 167.358C103.044 168.497 102.685 169.913 102.261 171.245C96.8994 188.061 98.0664 205.409 98.4205 222.544ZM-152.332 347.063C-151.844 347.454 -151.357 347.847 -150.869 348.238C-149.472 346.42 -148.207 344.478 -146.646 342.813C-144.219 340.224 -143.923 337.571 -145.145 334.255C-146.835 329.669 -148.054 324.91 -149.48 320.227C-150.257 317.675 -151.047 315.128 -151.831 312.579C-151.998 312.634 -152.165 312.688 -152.332 312.742V347.063ZM-161.664 129.206C-158.86 134.598 -147.323 142.488 -134.224 147.97C-137.152 136.976 -151.447 127.201 -161.664 129.206ZM-193.763 308.049C-194.498 308.818 -194.861 309.017 -194.909 309.274C-196.99 320.635 -199.055 331.999 -201.061 343.373C-201.167 343.974 -200.928 344.835 -200.528 345.29C-198.479 347.614 -196.324 349.845 -193.763 352.581V308.049ZM-147.289 207.121C-149.041 210.439 -152.989 211.978 -152.219 216.419C-150.463 226.537 -148.798 236.671 -146.953 247.649C-145.34 241.785 -143.894 236.661 -142.552 231.509C-142.361 230.779 -142.607 229.902 -142.766 229.116C-144.208 222.031 -145.675 214.952 -147.289 207.121ZM-132.024 153.647C-142.089 162.403 -143.351 173.629 -144.354 185.821C-139.979 183.431 -136.181 181.425 -132.471 179.268C-131.769 178.86 -131.045 177.891 -130.96 177.112C-130.131 169.539 -130.061 161.983 -132.024 153.647ZM-218.816 218.987C-215.359 220.301 -212.116 221.533 -207.904 223.134C-206.727 215.958 -205.27 208.916 -204.602 201.8C-204.42 199.86 -206.606 197.697 -207.706 195.636C-209.618 196.927 -212.069 197.827 -213.345 199.581C-217.549 205.361 -218.081 212.311 -218.816 218.987ZM-217.926 222.476C-218.472 222.714 -219.016 222.953 -219.561 223.19C-219.561 229.477 -219.677 235.767 -219.442 242.045C-219.405 243.041 -217.966 244.393 -216.867 244.874C-209.681 248.01 -202.547 246.935 -194.649 244.219C-198.715 238.795 -202.473 233.781 -206.466 228.454C-208.54 232.052 -210.033 234.822 -211.722 237.464C-212.219 238.242 -213.275 238.663 -214.074 239.246C-214.551 238.284 -215.341 237.353 -215.447 236.352C-215.825 232.753 -215.859 229.117 -216.275 225.525C-216.398 224.459 -217.353 223.49 -217.926 222.476ZM52.1258 252.25C52.3717 252.349 52.6183 252.448 52.8642 252.548C54.0656 249.984 56.3519 247.397 56.295 244.862C55.8853 226.625 55.1329 208.39 54.1823 190.171C53.9139 185.037 52.6225 179.957 51.8005 174.853C51.4646 174.898 51.1288 174.945 50.7929 174.991C51.237 200.744 51.6817 226.497 52.1258 252.25ZM61.7591 298.081C62.0176 298.103 62.2748 298.125 62.5326 298.147C64.254 283.779 65.8945 269.402 67.741 255.051C68.3417 250.38 68.9958 245.835 65.896 241.262C62.6479 244.438 58.8341 246.928 59.1707 252.312C59.5058 257.671 59.4468 263.055 59.7644 268.415C60.3503 278.308 61.086 288.193 61.7591 298.081ZM-197.796 393.596C-196.981 391.181 -196.144 389.608 -195.945 387.959C-194.912 379.407 -193.926 370.845 -193.186 362.262C-192.962 359.658 -192.189 356.713 -195.395 354.78C-197.672 353.408 -199.56 351.392 -201.809 349.506C-204.009 364.545 -203.967 378.859 -197.796 393.596ZM-3.789 112.065C-11.0581 113.47 -16.9655 116.386 -22.5125 120.103C-23.0928 120.492 -23.4835 121.386 -23.6633 122.118C-26.0044 131.658 -27.9063 141.259 -27.2901 151.171C-19.5679 138.321 -11.845 125.471 -3.789 112.065ZM-57.619 18.0297C-65.6764 24.3286 -91.1089 56.7401 -94.0465 64.358C-89.5211 63.7674 -85.0484 63.0489 -80.5468 62.6601C-78.6983 62.5005 -78.1657 61.841 -77.5559 60.1233C-74.6703 52.0034 -71.9161 43.7907 -68.29 35.9949C-65.4213 29.8274 -61.354 24.2189 -57.619 18.0297ZM-35.3362 203.915C-37.4601 213.941 -38.8266 223.33 -41.5408 232.311C-43.9064 240.142 -40.5466 245.985 -37.4742 252.426C-33.8298 241.389 -30.2782 230.67 -26.7806 219.934C-26.5902 219.349 -26.6366 218.491 -26.938 217.973C-29.565 213.468 -32.2756 209.011 -35.3362 203.915ZM210.181 133.198C209.647 133.241 209.112 133.285 208.577 133.327C205.708 159.723 202.838 186.12 199.968 212.515C200.31 212.566 200.651 212.618 200.992 212.669C201.132 212.258 201.286 211.852 201.407 211.436C205.288 198.066 209.174 184.697 213.027 171.318C213.282 170.432 213.412 169.464 213.37 168.545C213.003 160.591 212.73 152.628 212.115 144.693C211.817 140.835 210.847 137.028 210.181 133.198ZM-187.085 240.354C-186.718 240.573 -186.35 240.792 -185.983 241.011C-185.181 239.709 -183.926 238.494 -183.653 237.09C-182.01 228.617 -180.156 220.147 -179.221 211.583C-178.268 202.846 -178.526 194.025 -182.518 185.824C-183.121 184.585 -184.036 183.496 -185.17 181.792C-191.439 201.745 -191.006 220.997 -187.085 240.354ZM333.395 305.617C333.363 306.02 333.24 306.587 333.288 307.14C334.947 326.167 337.32 345.08 343.049 363.388C344.016 366.477 345.543 369.433 347.155 372.251C347.735 373.265 349.33 373.698 350.461 374.395C351.08 373.327 352.108 372.31 352.25 371.182C353.021 365.036 353.648 358.867 354.123 352.692C354.197 351.74 353.467 350.456 352.711 349.753C346.366 343.848 342.2 336.561 339.631 328.432C337.246 320.889 335.433 313.163 333.395 305.617ZM-79.03 108.366C-81.3879 94.3229 -81.6078 80.3076 -78.9169 65.4591C-84.3957 66.3106 -89.3371 66.937 -94.2025 67.9361C-95.3906 68.1801 -96.7677 69.4372 -97.308 70.5825C-100.151 76.6072 -98.1006 82.0597 -94.6115 87.0319C-89.6041 94.1661 -84.3409 101.121 -79.03 108.366ZM2.78806 106.772C3.06979 107.158 3.35083 107.543 3.63187 107.928C7.68866 107.928 11.7546 108.109 15.8001 107.894C27.348 107.282 33.5337 101.883 35.8319 90.5585C36.2492 88.5027 36.4804 86.3983 36.6448 84.3045C37.0298 79.3928 33.6011 76.572 28.9612 78.3403C26.415 79.3105 23.6819 80.7603 21.9717 82.7866C15.3723 90.6084 9.15077 98.7501 2.78806 106.772ZM-154.506 216.432C-157.359 219.622 -159.234 222.207 -161.591 224.23C-164.727 226.92 -165.374 230.069 -164.748 233.898C-162.862 245.442 -161.192 257.023 -159.193 268.546C-158.212 274.2 -156.687 279.759 -155.409 285.36C-153.498 277.915 -152.097 270.612 -150.801 263.291C-150.255 260.206 -149.285 257.011 -149.619 253.988C-150.964 241.803 -152.743 229.665 -154.506 216.432ZM-93.807 177.04C-99.0954 171.753 -104.178 166.076 -109.909 161.155C-113.558 158.021 -118.072 155.821 -122.396 153.585C-124.021 152.744 -126.205 152.985 -127.816 152.774C-125.509 157.708 -123.024 162.075 -121.395 166.741C-119.268 172.832 -119.422 173.175 -125.078 176.391C-128.522 178.35 -129.893 180.736 -128.999 184.956C-117.389 176.741 -108.85 181.738 -101.709 191.998C-99.0076 186.884 -96.6174 182.36 -93.807 177.04ZM-219.006 248.028C-218.756 250.377 -218.612 252.444 -218.306 254.486C-216.647 265.576 -215.1 276.697 -209.872 286.858C-208.152 290.2 -207.442 290.457 -204.876 287.731C-198.847 281.328 -193.982 274.467 -194.899 264.85C-195.414 259.448 -194.992 253.957 -194.992 248.218C-203.201 250.264 -210.933 250.746 -219.006 248.028ZM-56.0873 149.319C-53.9718 153.012 -51.6209 155.826 -50.6886 159.051C-49.3066 163.831 -48.5703 168.878 -48.2288 173.858C-47.8922 178.766 -44.7755 181.956 -42.6101 186.578C-42.0003 184.907 -41.656 184.171 -41.46 183.396C-37.5058 167.769 -33.4314 152.17 -29.7407 136.482C-28.9692 133.205 -29.6283 129.593 -29.6283 126.135C-29.9423 125.983 -30.2564 125.831 -30.5711 125.679C-39.1934 133.667 -47.8157 141.656 -56.0873 149.319ZM-180.301 236.351C-180.122 236.572 -179.943 236.792 -179.763 237.012C-176.645 234.427 -173.564 231.793 -170.394 229.274C-168.419 227.704 -167.612 225.901 -167.64 223.274C-167.725 215.203 -166.451 207.285 -161.813 200.513C-159.758 197.512 -159.621 195.079 -160.832 191.9C-164.143 183.2 -168.083 174.898 -174.469 167.973C-177.202 165.007 -178.292 165.046 -180.198 168.466C-181.503 170.807 -182.494 173.32 -183.652 175.744C-184.498 177.519 -183.928 178.794 -182.881 180.451C-180.785 183.771 -178.783 187.295 -177.581 191.008C-175.007 198.955 -175.382 207.201 -176.569 215.348C-177.594 222.381 -179.04 229.352 -180.301 236.351ZM-75.5577 242.512C-68.0617 239.628 -65.1537 233.663 -61.347 228.528C-60.1856 226.96 -60.1603 225.754 -61.229 224.154C-66.3572 216.477 -71.3646 208.719 -76.4823 201.034C-78.7391 197.646 -81.156 194.365 -83.6292 190.853C-86.521 195.265 -89.0954 199.433 -91.9339 203.412C-93.1297 205.089 -93.0861 206.314 -92.2479 208.132C-88.6871 215.864 -85.4693 223.754 -81.853 231.459C-80.048 235.304 -77.6536 238.872 -75.5577 242.512ZM232.395 409.395C243.688 403.809 264.273 357.582 262.566 342.895C262.213 343.334 261.908 343.667 261.654 344.036C252.39 357.433 241.625 369.354 228.081 378.611C227.242 379.185 226.675 380.952 226.827 382.047C227.535 387.143 228.447 392.216 229.472 397.26C230.275 401.216 231.353 405.116 232.395 409.395ZM-167.677 231.023C-171.698 234.231 -175.173 237.131 -178.785 239.847C-182.659 242.762 -185.065 249.797 -184.034 254.647C-181.01 268.869 -173.29 280.932 -166.323 293.316C-165.076 295.532 -162.678 297.234 -160.508 298.734C-159.592 299.367 -157.89 298.861 -156.545 298.873C-156.536 297.796 -156.285 296.654 -156.554 295.652C-162.205 274.627 -166.618 253.389 -167.677 231.023ZM-140.646 339.75C-140.171 339.696 -139.627 339.695 -139.114 339.566C-134.231 338.334 -134.263 338.335 -133.1 343.398C-131.298 351.254 -129.691 359.167 -127.557 366.933C-125.253 375.314 -122.181 383.461 -115.663 389.638C-113.504 391.683 -110.837 393.193 -108.12 395.152C-116.143 365.022 -122.966 335.526 -124.978 305.723C-130.046 316.73 -135.309 328.16 -140.646 339.75ZM-113.506 277.087C-116.864 282.174 -119.235 286.533 -118.592 292.105C-118.097 296.389 -118.42 300.762 -118.075 305.072C-116.654 322.788 -115.203 340.503 -113.579 358.202C-112.928 365.293 -110.749 371.961 -106.165 377.586C-103.678 380.639 -100.622 382.743 -96.0363 382.379C-101.85 347.34 -107.605 312.655 -113.506 277.087ZM-24.9623 221.388C-25.5005 222.659 -25.8342 223.259 -26.0162 223.901C-28.7521 233.568 -31.3932 243.262 -34.2352 252.896C-35.0896 255.792 -34.4404 258.018 -32.6944 260.327C-25.9881 269.2 -19.4104 278.171 -12.7336 287.066C-11.2174 289.086 -9.49396 290.952 -7.38829 293.455C-5.6606 284.998 -4.06921 277.265 -2.5242 269.521C-2.416 268.98 -2.56566 268.341 -2.742 267.795C-7.99533 251.563 -15.7232 236.52 -24.9623 221.388ZM-130.566 238.455C-125.633 238.518 -114.846 229.65 -112.991 224.136C-109.977 215.175 -106.84 206.255 -103.859 197.283C-103.547 196.347 -103.522 194.826 -104.071 194.176C-106.324 191.512 -108.582 188.727 -111.333 186.638C-116.521 182.702 -125.417 184.018 -129.561 188.968C-129.983 189.473 -130.227 190.194 -130.374 190.855C-133.154 203.28 -135.891 215.715 -138.672 228.139C-139.672 232.606 -135.161 238.397 -130.566 238.455ZM-62.5436 156.252C-68.3394 162.396 -74.7372 167.792 -76.7319 176.403C-77.145 178.188 -77.9488 180.028 -79.0483 181.483C-82.4377 185.968 -81.2327 189.438 -78.0724 193.738C-71.1118 203.211 -64.8713 213.213 -58.0056 223.494C-55.3589 217.617 -51.1869 212.902 -50.8735 206.308C-50.5517 199.538 -49.7381 192.793 -49.2716 186.029C-49.1367 184.072 -48.8465 181.774 -49.6664 180.16C-53.731 172.161 -58.1433 164.339 -62.5436 156.252ZM353.063 346.751C353.467 346.57 353.87 346.39 354.273 346.209C354.34 345.334 354.437 344.459 354.469 343.582C355.399 318.03 354.043 292.612 349.779 267.387C348.69 260.945 347.214 254.563 345.721 248.199C345.472 247.141 344.23 245.583 343.421 245.567C342.274 245.544 340.554 246.459 340.046 247.463C338.694 250.138 337.202 253.014 336.934 255.918C335.966 266.375 334.796 276.887 334.97 287.357C335.234 303.106 337.884 318.598 344.622 333.023C346.881 337.859 350.219 342.19 353.063 346.751ZM-17.5471 408.199C-13.5697 407.184 -12.3331 404.402 -11.2181 401.813C0.873581 373.736 7.59111 344.593 5.84094 313.824C5.79176 312.953 5.62946 311.815 5.06528 311.291C1.51155 307.992 -2.17006 304.832 -6.17557 301.302C-11.4795 336.845 -17.1522 371.931 -17.5471 408.199ZM290.703 196.262C281.982 217.12 278.389 239.06 275.55 261.156C272.703 283.311 270.02 305.487 267.266 327.655C268.715 326.483 269.532 325.111 270.236 323.683C281.355 301.13 289.761 277.646 294.758 252.953C297.211 240.836 298.802 228.914 294.78 216.683C292.627 210.138 292.012 203.086 290.703 196.262ZM-91.4371 412.561C-93.7093 415.852 -95.0154 414.72 -96.2183 413.158C-97.8567 411.029 -99.7523 409.029 -101.013 406.691C-103.718 401.675 -106.768 397.371 -112.8 395.894C-114.704 395.428 -116.449 393.79 -117.96 392.364C-120.315 390.141 -122.408 387.639 -124.917 384.924C-124.683 385.94 -124.63 386.612 -124.377 387.197C-121.69 393.409 -119.018 399.627 -116.251 405.804C-111.346 416.761 -105.519 427.396 -101.646 438.703C-96.3946 454.035 -100.384 464.793 -112.984 474.94C-113.235 475.143 -113.384 475.47 -114.123 476.48C-109.821 481.324 -105.819 486.694 -100.947 491.099C-94.9409 496.528 -89.0131 494.576 -87.1042 486.674C-85.9674 481.972 -85.6154 476.946 -85.777 472.094C-86.0566 463.69 -86.8878 455.297 -87.7098 446.921C-88.7925 435.888 -90.0902 424.877 -91.4371 412.561ZM-232.412 232.435C-232.874 234.83 -233.473 237.207 -233.777 239.622C-235.502 253.313 -233.362 266.678 -230.208 279.942C-225.22 300.914 -217.742 320.845 -205.526 338.781C-205.063 339.462 -204.445 340.036 -203.548 341.06C-203.255 339.303 -203.099 338.154 -202.868 337.02C-200.331 324.549 -197.448 312.137 -195.372 299.59C-194.257 292.849 -194.521 285.879 -194.164 279.012C-198.162 283.492 -201.361 287.912 -204.558 292.334C-206.187 294.586 -207.931 294.876 -209.43 292.33C-211.786 288.324 -214.453 284.406 -216.133 280.116C-220.012 270.203 -220.65 259.618 -221.633 249.132C-221.734 248.042 -221.932 246.52 -222.658 246C-227.36 242.63 -229.986 237.925 -232.412 232.435ZM-116.558 234.033C-120.152 236.167 -124.009 239.093 -128.339 240.862C-133.431 242.943 -137.51 240.325 -140.556 235.206C-143.515 246.797 -146.39 257.255 -146.141 268.487C-145.976 275.97 -146.718 283.888 -149.134 290.894C-151.476 297.687 -151.56 303.683 -149.287 310.117C-149.055 310.776 -148.915 311.468 -148.724 312.142C-146.585 319.682 -144.445 327.223 -142.107 335.464C-141.062 333.755 -140.37 332.827 -139.887 331.799C-135.569 322.604 -131.121 313.465 -127.092 304.144C-125.843 301.252 -125.478 297.879 -125.193 294.683C-124.042 281.78 -123.523 268.804 -121.881 255.967C-120.903 248.314 -118.272 240.872 -116.558 234.033ZM12.838 426.2C14.5439 423.38 15.8669 421.335 17.0508 419.213C28.404 398.863 34.8236 376.79 39.5043 354.144C44.1808 331.518 46.3013 308.56 47.9306 285.553C48.3015 280.312 48.4814 275.058 48.7498 269.811C31.2566 299.969 8.76294 398.474 12.838 426.2ZM23.5456 198.753C23.247 198.755 22.9484 198.758 22.6491 198.76C21.7434 200.636 20.7935 202.492 19.9378 204.391C10.9024 224.442 5.66031 245.65 0.963455 267.017C0.701385 268.211 0.881256 269.569 1.12294 270.798C3.41974 282.478 5.75024 294.151 8.15172 305.811C8.39061 306.973 8.87329 308.402 9.73607 309.064C13.5708 312.01 18.4075 311.273 21.102 307.246C22.4418 305.243 23.6615 302.917 24.0817 300.582C25.6927 291.627 27.9249 282.632 28.1322 273.61C28.461 259.25 27.6312 244.842 26.7656 230.486C26.1263 219.882 24.6494 209.328 23.5456 198.753ZM-174.335 360.787C-169.083 360.746 -164.205 359.298 -160.183 356.144C-157.881 354.34 -154.842 351.306 -154.962 348.972C-155.368 341.034 -155.076 332.948 -158.508 325.288C-165.099 310.58 -171.126 295.62 -177.537 280.83C-179.08 277.269 -181.217 277.197 -183.328 280.495C-185.024 283.143 -186.655 285.918 -187.746 288.848C-189.268 292.939 -191.334 297.239 -191.287 301.428C-191.111 316.985 -190.11 332.53 -189.529 348.084C-189.2 356.892 -188.581 357.82 -179.862 359.965C-178.061 360.408 -176.179 360.521 -174.335 360.787ZM-1.04034 262.983C-0.541504 261.194 -0.146637 259.913 0.173752 258.615C5.18466 238.29 11.3022 218.306 19.6581 199.104C21.6767 194.465 22.4678 190.23 21.2868 185.366C19.9111 179.695 19.1284 173.877 17.6803 168.229C16.6665 164.273 14.6114 163.664 11.1399 165.745C9.84569 166.521 8.61192 167.448 7.4955 168.466C-7.0363 181.715 -16.0478 198.518 -23.151 216.507C-23.515 217.43 -22.9775 218.944 -22.4351 219.953C-18.3488 227.573 -13.9442 235.031 -10.061 242.751C-6.84167 249.151 -4.19711 255.84 -1.04034 262.983ZM-81.5671 393.897C-77.5363 391.725 -74.0127 390.128 -70.8033 388.046C-57.1012 379.157 -49.1689 366.004 -44.0414 350.915C-43.2327 348.535 -42.71 345.898 -42.7844 343.402C-43.4147 322.208 -43.676 301.016 -41.2106 279.919C-40.1912 271.197 -44.0821 263.82 -46.4091 255.914C-47.0457 257.003 -47.345 258.075 -47.6064 259.156C-56.4345 295.617 -65.186 332.098 -74.1399 368.529C-76.1648 376.767 -78.8923 384.832 -81.5671 393.897ZM-115.798 472.586C-107.439 466.613 -102.587 459.192 -103.002 449.065C-103.433 438.542 -107.562 429.044 -112.197 419.854C-120.731 402.932 -128.557 385.734 -134.454 367.695C-136.944 360.073 -139.528 352.482 -142.259 344.308C-144.184 345.681 -145.754 346.814 -147.338 347.927C-150.917 350.446 -152.041 353.667 -151.532 358.154C-148.912 381.225 -144.447 403.867 -136.902 425.863C-131.392 441.926 -124.772 457.477 -115.798 472.586ZM-19.9921 408.284C-19.8621 407.325 -19.7293 406.769 -19.7188 406.212C-19.0408 370.804 -14.7542 335.779 -8.71683 300.93C-8.47865 299.557 -8.9543 297.712 -9.76862 296.564C-14.2364 290.269 -18.9867 284.177 -23.4966 277.911C-27.5071 272.34 -31.3306 266.635 -35.4534 260.676C-37.4221 268.282 -37.6715 275.401 -36.1518 282.942C-31.9636 303.725 -32.1021 324.51 -37.6694 345.161C-38.6994 348.982 -38.6362 353.158 -38.6531 357.173C-38.6664 360.548 -38.0657 363.925 -37.7305 367.301C-36.5277 379.426 -33.352 390.949 -27.2661 401.581C-25.6311 404.438 -23.9063 407.207 -19.9921 408.284ZM-75.9885 65.8957C-76.3623 67.716 -76.7564 69.1749 -76.9454 70.6598C-77.2848 73.3273 -77.6024 76.0047 -77.7527 78.6876C-79.0736 102.267 -72.9062 124.295 -63.7872 145.698C-61.9808 149.936 -60.5553 150.153 -57.2221 146.978C-50.617 140.684 -44.437 133.803 -37.17 128.389C-30.8558 123.686 -29.523 118.797 -31.2837 111.504C-34.1123 99.7935 -37.4265 88.4127 -45.4347 79.0772C-53.4134 69.7768 -63.8898 66.1341 -75.9885 65.8957ZM56.9119 254.274C52.4385 258.963 51.5659 261.566 51.4541 267.341C51.393 270.499 51.1471 273.652 51.0115 276.808C49.7138 306.917 46.6111 336.799 39.5318 366.154C34.1035 388.662 27.0059 410.518 13.6221 429.799C13.2322 430.361 12.7242 431.055 12.7544 431.662C13.1451 439.571 14.0282 447.423 19.5492 453.668C24.1962 458.927 30.294 458.882 34.6157 453.418C37.1198 450.251 39.2683 446.619 40.7669 442.871C48.2664 424.119 51.1176 404.278 53.5767 384.416C55.7048 367.228 57.3468 349.976 59.0169 332.734C59.7693 324.964 60.7839 317.115 60.4171 309.36C59.7391 295 58.0599 280.69 56.959 266.347C56.6519 262.345 56.9119 258.299 56.9119 254.274ZM-75.368 62.1589C-74.4616 62.4014 -74.1391 62.5231 -73.8068 62.5709C-72.533 62.7495 -71.255 62.8971 -69.9812 63.0708C-57.8396 64.7265 -47.7847 70.0643 -40.4096 80.0151C-32.4906 90.7006 -29.5004 103.126 -27.8837 116.021C-27.7425 117.149 -27.4973 118.264 -27.3005 119.384C-26.9563 119.38 -26.612 119.376 -26.2677 119.373C-25.8778 117.857 -25.3698 116.362 -25.1176 114.824C-23.5416 105.253 -21.7866 95.703 -20.5366 86.0883C-18.2567 68.552 -16.4918 50.9158 -18.9431 33.2909C-19.8607 26.6967 -21.7873 19.9626 -24.6932 13.9941C-28.6165 5.93533 -37.1348 4.52284 -44.1839 9.96611C-61.3287 23.2038 -69.6446 41.7462 -75.368 62.1589ZM-22.2581 115.313C-15.8581 113.014 -9.61273 110.877 -3.4622 108.493C-1.77386 107.839 0.0163574 106.748 1.09836 105.345C7.02124 97.6638 12.4073 89.5439 18.6408 82.1327C22.9238 77.0409 28.1968 72.6382 36.0771 75.1911C36.0771 74.5253 36.1136 74.0753 36.0694 73.6331C35.9879 72.8196 35.893 72.004 35.7434 71.2011C33.4171 58.7214 28.3991 47.3251 21.5875 36.7078C14.0535 24.9656 5.0919 14.5719 -7.23303 7.55303C-15.615 2.77909 -24.3722 1.4608 -31.1452 3.87449C-22.9023 8.84037 -19.1702 13.3289 -16.8902 22.3473C-15.6649 27.1909 -14.8766 32.2243 -14.5899 37.2126C-13.5613 55.0682 -16.2459 72.698 -18.4142 90.337C-19.4526 98.7831 -20.9892 107.168 -22.2581 115.313ZM-230.34 222.376C-228.514 221.598 -227.173 220.699 -225.729 220.482C-222.901 220.057 -222.194 218.55 -221.742 215.848C-220.957 211.158 -219.983 206.328 -217.998 202.064C-216.341 198.506 -213.52 195.206 -210.489 192.652C-207.246 189.918 -203.586 191.379 -202.187 195.441C-201.478 197.502 -200.87 199.863 -201.164 201.955C-202.151 208.978 -203.573 215.939 -204.805 222.929C-204.995 224.01 -205.585 225.527 -205.102 226.14C-201.904 230.197 -198.463 234.062 -194.807 238.334C-194.691 236.955 -194.574 235.946 -194.525 234.934C-194.018 224.418 -193.886 213.868 -192.931 203.394C-191.68 189.675 -188.589 176.38 -181.148 164.474C-178.933 160.929 -178.636 160.864 -175.337 163.496C-166.753 170.342 -162.223 179.769 -158.668 189.809C-158.186 191.171 -157.726 192.54 -157.188 194.104C-154.815 192.3 -153.03 190.496 -150.88 189.417C-147.867 187.904 -147.009 185.622 -146.687 182.486C-145.528 171.179 -142.921 160.368 -134.211 151.439C-139.233 148.661 -143.979 145.977 -148.78 143.397C-154.624 140.257 -159.792 136.377 -163.804 130.977C-164.455 130.101 -166.541 129.388 -167.478 129.775C-173.063 132.081 -179.03 133.983 -183.904 137.398C-204.531 151.853 -219.005 171.204 -227.222 195.047C-230.207 203.708 -231.626 212.707 -230.34 222.376ZM435.212 364.06C438.226 363.691 441.279 363.52 444.246 362.917C458.68 359.985 464.135 351.695 461.245 337.292C461.153 336.833 461.096 336.362 460.955 335.918C455.369 318.423 449.808 300.919 444.138 283.452C443.497 281.478 442.368 279.621 441.233 277.86C436.629 270.717 430.505 269.929 424.771 276.188C421.485 279.773 418.626 283.897 416.275 288.165C410.573 298.513 405.464 309.187 399.727 319.514C397.696 323.168 397.353 326.546 398.024 330.508C401.84 353.023 413.782 363.816 435.212 364.06ZM214.1 177.509L212.982 177.498C204.547 202.975 198.215 228.85 196.171 255.785C194.57 276.895 191.672 297.904 189.594 318.982C188.67 328.366 185.752 337.56 187.099 347.174C188.46 356.891 190.622 366.312 196.391 374.472C201.558 381.78 208.343 384.037 216.644 381.485C223.743 379.304 223.913 378.964 222.825 371.538C217.213 333.263 214.518 294.75 213.975 256.098C213.661 233.855 214.036 211.602 214.098 189.353C214.109 185.405 214.1 181.457 214.1 177.509ZM-18.065 411.71C-16.1181 422.257 -14.3469 432.724 -12.1899 443.112C-11.3074 447.358 -8.29822 448.721 -4.87025 446.056C2.49084 440.333 9.42618 434.826 9.45288 423.413C9.4845 409.466 11.5593 395.459 13.5525 381.595C19.592 339.568 31.9697 299.315 48.4098 260.253C48.8959 259.097 49.2711 257.81 49.321 256.569C49.5768 250.256 49.8936 243.937 49.8494 237.622C49.7025 216.438 49.4222 195.255 49.1664 174.072C49.1166 169.949 46.7685 168.548 43.0686 170.6C41.3662 171.544 39.6702 172.837 38.5228 174.381C34.5496 179.728 30.7647 185.219 27.0522 190.752C26.4944 191.585 26.4908 192.957 26.5991 194.042C27.1119 199.163 28.0253 204.256 28.2979 209.386C29.186 226.092 30.0544 242.803 30.5533 259.524C31.005 274.655 30.0818 289.732 26.1564 304.443C23.4605 314.548 19.5787 316.662 9.54282 314.093C9.44797 314.069 9.32361 314.161 9.01447 314.267C8.95895 314.962 8.80508 315.747 8.84865 316.521C9.729 332.296 7.94582 347.816 4.44125 363.176C1.52618 375.953 -1.49007 388.7 -7.43965 400.503C-9.67812 404.943 -12.3262 409.071 -18.065 411.71ZM40.4431 88.3129C40.1754 89.6502 39.9105 90.9874 39.6407 92.3247C37.3607 103.64 28.5186 111.228 16.944 111.568C12.9821 111.685 8.99693 111.46 5.03992 111.158C2.09674 110.934 0.0254822 111.571 -1.58206 114.394C-9.62608 128.512 -17.9364 142.48 -25.953 156.614C-27.4678 159.285 -28.4838 162.398 -29.029 165.432C-30.8902 175.783 -32.4548 186.186 -34.0835 196.577C-34.2781 197.819 -34.6505 199.374 -34.1214 200.328C-31.3904 205.255 -28.3931 210.034 -25.3404 215.11C-21.8836 207.612 -18.8863 200.521 -15.4 193.679C-9.39986 181.904 -2.30855 170.835 9.13815 163.568C18.2501 157.782 16.8674 159.071 19.8668 167.176C22.158 173.367 23.7051 179.835 25.7082 186.6C31.6718 177.334 38.0922 168.841 49.0049 164.038C46.6118 139.07 48.303 113.212 40.4431 88.3129ZM-98.3817 68.5604C-104.812 70.7076 -110.244 72.3718 -115.569 74.3271C-129.557 79.4624 -143.233 85.2488 -154.63 95.215C-160.58 100.419 -165.496 106.483 -165.815 114.759C-165.959 118.474 -165.2 122.532 -163.623 125.85C-163.015 127.132 -159.012 126.857 -156.542 127.183C-144.561 128.761 -136.264 135.034 -131.935 146.404C-131.527 147.475 -131.158 148.562 -130.841 149.447C-112.252 149.235 -103.475 163.858 -92.6695 173.96C-86.5808 167.425 -80.5891 161.053 -74.6943 154.59C-73.9903 153.82 -73.5477 152.592 -73.4381 151.529C-72.5992 143.376 -73.9165 135.443 -76.1255 127.624C-80.0938 113.577 -87.5286 101.281 -95.5144 89.2669C-99.5676 83.1698 -102.965 76.958 -98.3817 68.5604ZM-118.22 277.412C-117.919 277.475 -117.618 277.538 -117.317 277.601C-116.742 275.897 -116.271 274.146 -115.552 272.503C-115.126 271.53 -114.31 270.725 -113.669 269.845C-113.116 270.739 -112.552 271.627 -112.016 272.532C-111.9 272.726 -111.861 272.974 -111.822 273.204C-107.272 299.837 -102.682 326.464 -98.2003 353.11C-96.5963 362.645 -95.2529 372.225 -93.7908 381.785C-93.4641 382.019 -93.1381 382.253 -92.8114 382.488C-90.3158 380.013 -87.1204 377.929 -85.47 374.979C-82.0097 368.794 -78.5213 362.404 -76.5196 355.659C-65.5394 318.659 -59.2673 280.712 -54.4553 242.477C-53.8117 237.363 -55.6904 233.773 -58.3062 229.796C-59.0243 230.711 -59.5329 231.49 -60.1674 232.148C-64.3808 236.517 -68.439 241.059 -72.9118 245.146C-76.4002 248.333 -76.9018 248.009 -78.6653 243.744C-80.0059 240.503 -81.2621 237.223 -82.7067 234.03C-86.5934 225.44 -90.5617 216.886 -94.7148 207.845C-99.4903 213.607 -103.906 218.587 -107.888 223.894C-109.781 226.418 -111.531 229.419 -112.161 232.452C-114.086 241.717 -115.625 251.076 -116.941 260.45C-117.728 266.053 -117.818 271.754 -118.22 277.412ZM-153.971 355.601L-154.936 355.063C-157.898 358.91 -161.168 362.561 -163.77 366.638C-175.431 384.91 -188.111 402.419 -201.463 419.496C-206.156 425.496 -209.695 432.544 -212.933 439.499C-216.237 446.595 -217.492 454.298 -215.058 462.074C-211.02 474.975 -201.408 481.582 -188.818 484.146C-172.265 487.516 -155.759 486.116 -139.411 482.399C-132.121 480.74 -125.07 478.375 -118.484 474.241C-128.631 455.867 -136.502 436.797 -142.093 416.793C-147.703 396.719 -151.426 376.277 -153.971 355.601ZM134.568 321.505C133.909 319.932 133.339 319.029 133.149 318.051C130.739 305.667 127.57 293.362 126.199 280.862C123.891 259.812 123.122 238.596 120.948 217.528C119.631 204.766 117.013 192.127 114.689 179.487C114.156 176.583 112.43 173.898 111.252 171.112C110.841 171.165 110.431 171.218 110.02 171.27C108.319 179.005 105.995 186.664 105.041 194.489C102.834 212.598 100.987 230.763 99.5644 248.951C98.2984 265.138 98.0784 281.252 100.317 297.559C102.759 315.358 102.898 333.475 103.977 351.458C104.055 352.77 103.609 354.113 103.406 355.441C102.937 355.443 102.468 355.445 101.999 355.447C99.1899 347.519 99.138 338.999 97.411 330.022C97.1665 331.231 97.0035 331.653 97.007 332.074C97.1932 356.895 97.2353 381.755 101.01 406.342C102.198 414.084 104.705 421.855 107.973 428.985C111.889 437.528 119.448 438.936 126.741 432.936C130.629 429.737 134.309 425.719 136.665 421.313C150.302 395.8 157.522 368.775 154.08 339.582C153.224 332.323 151.148 325.362 147.316 319.055C144.932 315.132 142.949 314.821 139.355 317.605C137.901 318.73 136.501 319.926 134.568 321.505ZM225.863 376.759C226.904 376.19 227.332 376.01 227.7 375.746C228.745 374.995 229.796 374.246 230.791 373.432C244.374 362.328 254.8 348.542 264.205 333.904C264.862 332.88 265.165 331.518 265.293 330.278C267.852 305.358 270.19 280.413 272.936 255.513C275.331 233.79 279.657 212.498 288.901 192.474C289.457 191.271 289.836 189.7 289.574 188.452C286.449 173.579 283.683 158.601 279.738 143.943C277.926 137.211 274.382 130.682 270.456 124.849C265.293 117.176 257.294 115.277 249.456 118.476C244.176 120.631 239.914 124.316 237.071 129.027C231.219 138.723 225.93 148.76 220.476 158.695C217.306 164.471 215.887 170.577 216.839 177.247C217.315 180.583 217.184 184.023 217.154 187.415C217.013 203.687 216.842 219.958 216.625 236.229C216.191 268.696 217.962 301.067 221.015 333.371C222.367 347.679 224.192 361.943 225.863 376.759ZM397.193 319.341C402.878 308.522 407.895 298.48 413.395 288.709C416.364 283.433 420.04 278.536 423.642 273.649C424.925 271.908 426.791 270.487 428.629 269.285C433.045 266.398 437.763 266.826 440.755 271.165C443.637 275.344 446.102 280.017 447.732 284.819C453.678 302.337 459.254 319.982 464.859 337.614C468.438 348.871 463.636 359.452 452.208 363.764C438.542 368.921 424.839 368.105 411.778 361.323C404.231 357.403 400.29 350.49 397.891 342.659C396.607 338.462 395.769 334.131 394.611 329.378C392.29 332.849 390.343 336.138 388.022 339.135C385.307 342.639 382.492 346.125 379.317 349.2C372.978 355.339 365.676 357.639 357.295 353.173C355.721 361.962 354.212 370.396 352.703 378.829C352.274 378.934 351.844 379.041 351.415 379.146C350.319 378.085 349.089 377.132 348.147 375.948C340.27 366.058 335.888 354.52 334.22 342.232C332.175 327.172 331.038 311.975 329.899 296.808C328.253 274.854 327.355 252.818 321.369 231.447C320.391 227.953 318.94 224.591 317.708 221.168C317.159 221.179 316.608 221.19 316.058 221.202C312.694 229.932 309.33 238.662 305.966 247.391C305.545 247.446 305.124 247.501 304.704 247.555C303.331 244.754 301.956 241.952 300.249 238.469C299.766 240.901 299.403 242.745 299.034 244.589C292.544 277.025 282.922 308.332 266.226 337.17C264.658 339.88 264.41 343.397 263.744 346.582C260.48 362.195 256.711 377.641 249.364 391.957C245.269 399.937 240.232 407.226 233.635 413.356C231.118 415.696 230.341 415.49 229.691 412.073C227.747 401.854 225.922 391.612 224.006 381.131C221.957 381.888 220.03 382.679 218.052 383.314C208.125 386.501 199.094 383.494 193.02 374.982C188.68 368.901 186.991 361.863 185.793 354.656C185.679 353.97 185.567 353.283 185.436 352.6C185.422 352.528 185.288 352.478 184.796 352.102C181.25 371.821 177.718 391.325 172.281 410.379L170.909 410.414C170.501 409.1 169.878 407.812 169.714 406.468C166.4 379.272 166.378 351.999 168.684 324.761C171.687 289.296 175.604 253.905 178.344 218.422C179.757 200.129 179.478 181.706 179.963 163.342C179.398 163.204 178.833 163.067 178.268 162.93C177.284 165.235 175.895 167.455 175.384 169.861C172.854 181.762 170.285 193.666 168.242 205.655C164.803 225.827 162.957 246.294 156.892 265.965C155.686 269.872 154.24 273.713 152.75 277.523C152.373 278.485 151.4 279.214 150.701 280.05C150.024 279.177 149.103 278.402 148.709 277.417C144.34 266.491 142.721 255.031 142.892 243.369C143.135 226.863 143.945 210.365 144.178 193.858C144.31 184.49 143.969 175.004 140.62 166.138C138.751 161.191 136.085 156.343 132.858 152.161C128.447 146.449 123.12 146.646 118.971 152.557C116.121 156.616 114.249 161.384 112.151 165.933C111.749 166.804 112.047 168.262 112.499 169.224C119.633 184.409 122.409 200.64 123.848 217.141C125.88 240.464 127.502 263.823 129.603 287.139C130.252 294.341 131.871 301.458 133.097 308.605C133.272 309.629 133.632 310.655 134.089 311.592C135.847 315.196 138.347 315.56 141.163 312.681C144.051 309.73 144.25 309.713 146.596 313.023C156.191 326.561 159.009 341.934 158.117 358.075C156.745 382.889 149.397 405.873 135.561 426.593C133.258 430.04 130.242 433.195 127 435.792C119.461 441.831 111.046 440.474 106.677 431.859C103.556 425.708 101.607 418.79 100.145 411.997C95.1395 388.75 94.4144 365.084 94.3947 341.416C94.3772 320.454 95.1956 299.486 94.8401 278.534C94.7074 270.686 92.6965 262.782 90.841 255.072C88.1353 243.827 84.8436 232.72 81.6861 221.587C81.1051 219.539 79.9739 217.647 79.0971 215.683C78.7268 215.728 78.3558 215.773 77.9856 215.817C76.4342 222.856 74.9876 229.92 73.307 236.927C70.6575 247.976 71.195 259.172 71.0376 270.403C70.7587 290.41 69.6872 310.407 68.9101 330.407C68.8525 331.895 68.5026 333.371 68.1823 335.59C63.9294 332.363 65.0508 327.558 62.7413 323.657C62.0134 330.372 61.4717 336.615 60.6406 342.819C56.9583 370.299 53.6406 397.841 49.1931 425.197C47.7985 433.777 43.4115 441.9 40.1065 450.117C39.2226 452.316 37.4858 454.293 35.7834 456.019C30.5041 461.369 23.5948 461.217 18.4735 455.71C14.1912 451.104 12.3104 445.309 10.7956 439.372C10.4787 438.132 10.2405 436.87 9.87236 435.189C7.27275 437.934 5.01952 440.555 2.51195 442.902C-0.559097 445.776 -3.8887 448.372 -7.01877 451.187C-9.05418 453.017 -10.3048 452.621 -11.6102 450.297C-15.6347 443.136 -17.7453 435.391 -18.724 427.324C-19.2587 422.916 -19.3297 418.452 -19.754 414.028C-19.8496 413.025 -20.3035 411.834 -21.0033 411.15C-23.8734 408.344 -27.4868 406.117 -29.7611 402.919C-36.2074 393.854 -38.8014 383.244 -40.5151 372.424C-41.2212 367.966 -41.675 363.468 -42.3425 358.212C-44.0962 361.424 -45.4782 364.048 -46.9445 366.624C-54.9471 380.676 -66.438 390.69 -81.487 396.663C-82.7228 397.153 -83.7571 398.451 -84.5988 399.587C-89.4544 406.136 -88.886 413.189 -87.4267 420.837C-84.1779 437.858 -81.8404 455.065 -82.3624 472.462C-82.5324 478.133 -83.273 483.948 -84.8447 489.381C-87.537 498.692 -94.7857 500.932 -102.377 494.851C-106.239 491.757 -109.283 487.606 -112.524 483.786C-114.097 481.933 -115.272 479.745 -116.253 478.271C-124.571 480.881 -132.415 483.998 -140.552 485.759C-156.782 489.27 -173.305 490.753 -189.596 486.509C-212.874 480.445 -223.18 460.503 -215.065 437.841C-213.27 432.828 -210.842 427.855 -207.78 423.518C-196.637 407.741 -185.062 392.269 -173.736 376.62C-170.193 371.723 -166.918 366.633 -162.981 360.836C-172.402 364.724 -180.718 363.577 -189.209 359.045C-189.832 372.81 -190.644 386.084 -197.606 397.82C-198.131 397.857 -198.656 397.895 -199.182 397.932C-200.404 393.882 -201.859 389.885 -202.805 385.772C-205.348 374.709 -205.495 363.471 -204.49 352.229C-204.163 348.567 -204.695 345.686 -207.106 342.606C-215.346 332.087 -220.716 319.976 -224.936 307.388C-231.382 288.161 -236.829 268.672 -237.899 248.271C-238.294 240.733 -237.658 233.275 -233.697 226.508C-233.311 225.849 -233.104 224.964 -233.14 224.2C-234.477 196.191 -223.02 173.035 -205.747 152.142C-202.625 148.366 -199.147 144.84 -195.535 141.524C-187.284 133.95 -177.948 128.354 -166.374 126.916C-172.598 110.43 -163.939 99.6065 -152.404 90.2034C-140.616 80.5937 -126.497 75.3944 -112.412 70.2555C-110.217 69.4547 -108.038 68.3966 -105.763 68.0668C-98.8797 67.0678 -95.1363 62.857 -91.8151 56.9989C-83.1704 41.7525 -72.2619 28.1626 -59.6756 15.9191C-52.1634 8.61123 -43.1118 4.13399 -33.2565 1.27665C-22.2637 -1.91113 -12.2081 1.18244 -2.87978 7.10452C7.90718 13.9512 16.2041 23.2129 22.7242 34.1416C30.9334 47.9003 37.568 62.2678 39.9568 78.3016C40.0749 79.0947 40.306 79.9159 40.6777 80.6218C47.2238 93.032 49.4601 106.541 50.0286 120.277C50.6433 135.128 50.4115 150.013 50.6293 164.882C50.6525 166.461 50.8506 168.226 51.5785 169.575C56.5838 178.856 58.8286 188.911 59.1665 199.262C59.593 212.352 59.248 225.466 59.2361 238.57C59.2347 239.807 59.2361 241.043 59.2361 242.469C68.2293 236.967 68.2293 236.967 70.1116 237.523C72.1013 228.763 73.4166 219.791 77.935 210.58C87.7938 225.59 91.4326 241.654 95.1261 257.921C95.1261 254.568 95.1121 251.215 95.1296 247.862C95.1472 244.467 95.2807 241.071 95.2146 237.678C94.9568 224.454 94.3041 211.226 94.4425 198.007C94.5746 185.355 96.7147 173.051 104.152 162.281C105.631 160.141 107.011 158.822 108.843 162.502C109.546 161.116 109.985 160.053 110.588 159.093C112.45 156.125 114.085 152.952 116.328 150.299C122.938 142.484 129.557 142.71 135.651 150.991C142.438 160.214 145.935 170.848 146.215 182.132C146.624 198.614 146.211 215.12 145.95 231.613C145.727 245.685 146.211 259.665 149.875 274.75C151.828 272.074 153.915 270.334 154.52 268.179C156.345 261.673 157.874 255.053 159.017 248.392C162.896 225.793 166.239 203.096 170.482 180.567C171.914 172.957 175.372 165.722 178.009 158.354C178.428 157.184 179.402 156.214 180.119 155.152C180.525 155.227 180.931 155.303 181.337 155.379C181.566 158.192 181.907 161.001 182.007 163.817C182.868 188.083 181.86 212.291 179.63 236.456C176.608 269.215 173.257 301.948 170.647 334.74C168.946 356.112 168.989 377.558 171.602 398.915C171.667 399.448 171.796 399.973 172.042 401.28C172.594 399.987 172.963 399.423 173.075 398.814C176.918 377.986 181.119 357.213 184.38 336.293C185.795 327.22 185.155 317.838 185.644 308.606C186.884 285.172 190.689 262.088 194.914 239.036C196.534 230.204 196.712 221.116 197.689 212.159C200.764 183.995 203.906 155.838 207.027 127.679C207.079 127.215 207.098 126.7 207.315 126.311C207.723 125.58 208.264 124.923 208.749 124.236C209.293 124.886 210.168 125.465 210.329 126.2C211.581 131.913 212.856 137.631 213.808 143.4C214.76 149.165 215.346 154.989 216.219 161.765C217.069 159.786 217.615 158.583 218.108 157.361C222.718 145.925 227.824 134.757 235.783 125.171C237.2 123.464 238.729 121.819 240.393 120.357C250.679 111.317 261.987 111.724 271.597 121.518C278.288 128.339 281.891 136.902 284.084 145.948C287.165 158.657 289.648 171.511 292.438 184.534C294.951 182.217 295.568 184.32 296.308 186.345C301.059 199.347 302.36 212.815 301.16 226.482C300.625 232.57 302.362 237.693 305.691 243.304C306.365 241.7 306.96 240.621 307.278 239.466C309.268 232.25 311.163 225.008 313.186 217.801C313.467 216.8 314.282 215.949 314.85 215.028C315.678 215.773 316.715 216.382 317.303 217.283C323.249 226.404 326.023 236.671 327.67 247.263C328.976 255.666 329.9 264.128 331.128 273.595C331.7 269.102 332.002 265.548 332.63 262.053C333.874 255.139 336.265 248.714 341.408 243.645C344.419 240.678 345.17 240.833 346.634 244.69C352.217 259.399 354.898 274.757 355.688 290.35C356.64 309.159 356.83 328.008 357.196 346.843C357.238 349.008 357.951 349.999 359.817 350.725C363.31 352.084 366.823 352.043 370.018 350.319C373.075 348.669 375.969 346.611 378.629 344.366C380.846 342.496 382.638 340.115 384.585 337.931C391.405 330.273 394.477 322.031 394.105 311.072C393.039 279.601 399.749 249.153 410.182 219.552C413.034 211.458 417.111 203.898 422.83 197.389C424.513 195.473 426.435 193.678 428.522 192.223C432.892 189.174 437.841 188.763 441.926 192.132C445.916 195.424 449.67 199.345 452.471 203.674C460.76 216.489 465.119 231.03 469.666 245.456C472.517 254.503 475.406 263.545 478.617 272.468C479.419 274.697 481.166 276.995 483.118 278.305C486.222 280.388 489.171 279.609 491.456 276.605C492.926 274.672 493.868 272.344 495.136 270.246C500.212 261.85 505.277 253.446 510.467 245.12C511.308 243.77 512.685 242.711 513.938 241.667C520.823 235.935 528.535 236.368 533.849 243.654C544.016 257.594 546.497 273.085 541.495 289.68C538.585 299.339 533.487 307.827 527.731 316.029C524.312 320.9 521.36 326.114 518.384 331.28C516.5 334.549 516.13 338.138 517.206 341.82C518.338 345.691 520.733 347.383 524.6 346.244C527.349 345.434 530.035 344.046 532.42 342.431C541.254 336.448 548.16 328.585 554.432 319.983C559.31 313.294 564.8 307.024 570.353 300.871C572.24 298.78 574.993 297.262 577.624 296.102C582.371 294.009 586.662 295.508 589.499 299.865C590.386 301.226 591.088 302.742 591.65 304.27C592.376 306.244 592.932 308.288 593.465 310.326C597.241 324.757 600.32 327.203 615.093 327.766C618.141 327.882 620.472 326.96 622.51 324.653C625.919 320.794 629.421 317.002 633.085 313.386C642.31 304.286 650.674 302.602 662.469 308.036C679.942 316.085 697.87 322.829 716.361 328.103C735.985 333.699 755.717 334.565 775.707 330.023C807.125 322.884 839.125 320.559 871.195 319.596C921.256 318.092 971.329 316.675 1021.41 316.118C1070.1 315.576 1118.81 316.016 1167.51 316.306C1198.76 316.493 1230 317.172 1261.24 317.661C1299.74 318.264 1338.23 318.887 1376.73 319.571C1378.16 319.597 1379.58 320.364 1381 320.786C1379.52 321.297 1378.04 322.266 1376.57 322.251C1338.18 321.866 1299.8 321.371 1261.41 320.913C1240.34 320.662 1219.27 320.339 1198.21 320.229C1141.54 319.936 1084.88 319.751 1028.21 319.5C1001.99 319.385 975.764 318.965 949.543 319.129C907.287 319.393 865.039 320.439 823.027 325.408C807.481 327.247 791.954 329.729 776.645 332.99C752.301 338.174 728.695 336.101 705.505 327.745C692.41 323.028 679.487 317.836 666.456 312.941C663.506 311.833 660.462 310.926 657.401 310.175C650.014 308.361 643.177 309.73 637.188 314.434C634.068 316.886 631.223 319.693 628.289 322.377C625.355 325.062 622.648 328.032 619.517 330.459C612.583 335.836 606.087 335.318 600.366 328.6C597.686 325.453 595.832 321.55 593.893 317.839C591.782 313.798 590.23 309.457 588.035 305.466C583.823 297.808 577.553 296.837 571.565 303.137C567.307 307.617 563.644 312.665 559.751 317.488C553.512 325.218 547.438 333.088 540.996 340.644C539.081 342.891 536.315 344.551 533.683 346.02C526.903 349.805 520.468 348.861 514.379 344.157C512.357 342.595 511.863 341.113 513.175 338.829C517.082 332.031 521.001 325.233 524.668 318.305C529.26 309.627 534.179 301.056 537.928 292.01C543.628 278.256 541.635 264.667 534.806 251.689C533.889 249.945 532.672 248.314 531.368 246.828C526.915 241.752 521.221 240.734 516.17 245.144C511.927 248.849 508.255 253.427 505.139 258.152C501.48 263.703 498.765 269.87 495.492 275.686C494.298 277.807 492.88 279.882 491.209 281.639C488.13 284.873 484.717 284.958 481.801 281.567C479.544 278.944 477.398 275.943 476.21 272.735C472.266 262.091 469.042 251.179 465.042 240.558C460.799 229.289 456.194 218.142 451.305 207.138C449.633 203.373 447.008 199.836 444.144 196.839C438.744 191.186 431.927 191.032 427.024 197.047C422.642 202.422 418.899 208.534 415.954 214.827C400.751 247.319 395.032 281.684 396.671 317.39C396.685 317.696 396.827 317.996 397.193 319.341Z" fill="#CECECE"/>
</svg>
